<?xml version="1.0" encoding="UTF-8" standalone="no" ?>
<!DOCTYPE svg PUBLIC "-//W3C//DTD SVG 1.1//EN" "http://www.w3.org/Graphics/SVG/1.1/DTD/svg11.dtd">
<svg xmlns="http://www.w3.org/2000/svg" xmlns:xlink="http://www.w3.org/1999/xlink" version="1.1" width="80" height="100" viewBox="0 0 80 100" xml:space="preserve">
<desc>Created with Fabric.js 5.3.0</desc>
<defs>
</defs>
<g transform="matrix(0.754509181 0 0 2.8354957707 21.6149620604 58.6791351809)" id="PFAleANvXrO1F7tpOlaKn"  >
<filter id="SVGID_257" y="-24.82296319%" height="149.64592638%" x="-34.46888956%" width="168.93777912000002%" >
	<feGaussianBlur in="SourceAlpha" stdDeviation="0.5"></feGaussianBlur>
	<feOffset dx="2" dy="0" result="oBlur" ></feOffset>
	<feFlood flood-color="rgb(0,0,0)" flood-opacity="1"/>
	<feComposite in2="oBlur" operator="in" />
	<feMerge>
		<feMergeNode></feMergeNode>
		<feMergeNode in="SourceGraphic"></feMergeNode>
	</feMerge>
</filter>
<path style="stroke: rgb(106,49,171); stroke-width: 0; stroke-dasharray: none; stroke-linecap: butt; stroke-dashoffset: 0; stroke-linejoin: miter; stroke-miterlimit: 4; fill: rgb(247,47,58); fill-rule: nonzero; opacity: 1;filter: url(#SVGID_257);" vector-effect="non-scaling-stroke"  transform=" translate(0, 0)" d="M -10.36707 -5.96869 C -10.36707 -8.39785 -2.96661 -10.36707 6.162319999999999 -10.36707 L 6.162319999999999 -10.36707 L 6.162319999999999 -10.36707 C 8.484539999999999 -10.36707 10.367069999999998 -9.86614 10.367069999999998 -9.24821 L 10.367069999999998 5.9687 L 10.367069999999998 5.9687 C 10.367069999999998 8.39786 2.9666099999999984 10.367080000000001 -6.162320000000001 10.367080000000001 L -6.162320000000001 10.367080000000001 L -6.162320000000001 10.367080000000001 C -8.48454 10.367080000000001 -10.367070000000002 9.866150000000001 -10.367070000000002 9.248220000000002 z" stroke-linecap="round" />
</g>
<g transform="matrix(0 0.6726640734 2.527916404 0 40 18.8986358491)" id="VMrkCBaGTxm2nsFZK_zvR"  >
<path style="stroke: rgb(106,49,171); stroke-width: 0; stroke-dasharray: none; stroke-linecap: butt; stroke-dashoffset: 0; stroke-linejoin: miter; stroke-miterlimit: 4; fill: rgb(0,0,0); fill-rule: nonzero; opacity: 1;" vector-effect="non-scaling-stroke"  transform=" translate(0, 0)" d="M -10.36707 -5.96869 C -10.36707 -8.39785 -2.96661 -10.36707 6.162319999999999 -10.36707 L 6.162319999999999 -10.36707 L 6.162319999999999 -10.36707 C 8.484539999999999 -10.36707 10.367069999999998 -9.86614 10.367069999999998 -9.24821 L 10.367069999999998 5.9687 L 10.367069999999998 5.9687 C 10.367069999999998 8.39786 2.9666099999999984 10.367080000000001 -6.162320000000001 10.367080000000001 L -6.162320000000001 10.367080000000001 L -6.162320000000001 10.367080000000001 C -8.48454 10.367080000000001 -10.367070000000002 9.866150000000001 -10.367070000000002 9.248220000000002 z" stroke-linecap="round" />
</g>
<g transform="matrix(0 0.6726640733 1.5443256528 0 48.208616879 81.101364152)" id="YrXMvP2gq2qFz4jyR9G4n"  >
<path style="stroke: rgb(106,49,171); stroke-width: 0; stroke-dasharray: none; stroke-linecap: butt; stroke-dashoffset: 0; stroke-linejoin: miter; stroke-miterlimit: 4; fill: rgb(247,47,58); fill-rule: nonzero; opacity: 1;" vector-effect="non-scaling-stroke"  transform=" translate(0, 0)" d="M -10.36707 -3.16734 C -10.36707 -7.1436399999999995 -2.96661 -10.36707 6.162319999999999 -10.36707 L 6.162319999999999 -10.36707 L 6.162319999999999 -10.36707 C 8.484539999999999 -10.36707 10.367069999999998 -9.54709 10.367069999999998 -8.5356 L 10.367069999999998 3.1673399999999994 L 10.367069999999998 3.1673399999999994 C 10.367069999999998 7.1436399999999995 2.9666099999999984 10.367069999999998 -6.162320000000001 10.367069999999998 L -6.162320000000001 10.367069999999998 L -6.162320000000001 10.367069999999998 C -8.48454 10.367069999999998 -10.367070000000002 9.547089999999999 -10.367070000000002 8.535599999999999 z" stroke-linecap="round" />
</g>
<g transform="matrix(1.8167429477 0 0 -1.5673460805 56.4480584395 81.101364152)" id="GEEAU1Ikw6Otr9jAz7mTa"  >
<filter id="SVGID_266" y="-20%" height="140%" x="-20%" width="140%" >
	<feGaussianBlur in="SourceAlpha" stdDeviation="0"></feGaussianBlur>
	<feOffset dx="0" dy="0" result="oBlur" ></feOffset>
	<feFlood flood-color="rgb(0,0,0)" flood-opacity="1"/>
	<feComposite in2="oBlur" operator="in" />
	<feMerge>
		<feMergeNode></feMergeNode>
		<feMergeNode in="SourceGraphic"></feMergeNode>
	</feMerge>
</filter>
<path style="stroke: rgb(244,39,157); stroke-width: 0; stroke-dasharray: none; stroke-linecap: butt; stroke-dashoffset: 0; stroke-linejoin: miter; stroke-miterlimit: 4; fill: rgb(255,0,0); fill-rule: nonzero; opacity: 0.46;filter: url(#SVGID_266);" vector-effect="non-scaling-stroke"  transform=" translate(0, 0)" d="M -4.44928 -2.0154 C -4.44928 -3.3596000000000004 -3.5091799999999997 -4.44928 -2.34951 -4.44928 L 2.34951 -4.44928 L 2.34951 -4.44928 C 3.5091799999999997 -4.44928 4.44928 -3.35959 4.44928 -2.0154 L 4.44928 2.0153899999999996 L 4.44928 2.0153899999999996 C 4.44928 3.35959 3.5091799999999997 4.449269999999999 2.34951 4.449269999999999 L -2.34951 4.449269999999999 L -2.34951 4.449269999999999 C -3.5091799999999997 4.449269999999999 -4.44928 3.3595799999999993 -4.44928 2.0153899999999996 z" stroke-linecap="round" />
</g>
<g transform="matrix(2.2989414814 0 0 1.7425802567 44.302366879 50.9257191332)" id="4mDoJJ1Ujly80_eE2wq0c"  >
<path style="stroke: rgb(244,39,157); stroke-width: 0; stroke-dasharray: none; stroke-linecap: butt; stroke-dashoffset: 0; stroke-linejoin: miter; stroke-miterlimit: 4; fill: rgb(0,0,0); fill-rule: nonzero; opacity: 1;" vector-effect="non-scaling-stroke"  transform=" translate(0, 0)" d="M -4.44939 -2.74078 C -4.44939 -3.19393 -4.31294 -3.62852 -4.07006 -3.94895 C -3.82718 -4.26938 -3.4977599999999995 -4.44939 -3.15428 -4.44939 L 3.15428 -4.44939 L 3.15428 -4.44939 C 3.49776 -4.44939 3.8271800000000002 -4.26938 4.07006 -3.94895 C 4.31294 -3.62852 4.44939 -3.19393 4.44939 -2.74078 L 4.44939 2.7407899999999996 L 4.44939 2.7407899999999996 C 4.44939 3.68443 3.8695500000000003 4.449389999999999 3.15428 4.449389999999999 L -3.15428 4.449389999999999 L -3.15428 4.449389999999999 C -3.86955 4.449389999999999 -4.44939 3.6844199999999994 -4.44939 2.7407899999999996 z" stroke-linecap="round" />
</g>
</svg>