<svg id="visual" viewBox="0 0 960 540" width="960" height="540" xmlns="http://www.w3.org/2000/svg" xmlns:xlink="http://www.w3.org/1999/xlink" version="1.1"><rect x="0" y="0" width="960" height="540" fill="#001220"></rect><path d="M76 0L72.5 22.5C69 45 62 90 57.3 135C52.7 180 50.3 225 49.7 270C49 315 50 360 54.3 405C58.7 450 66.3 495 70.2 517.5L74 540L0 540L0 517.5C0 495 0 450 0 405C0 360 0 315 0 270C0 225 0 180 0 135C0 90 0 45 0 22.5L0 0Z" fill="#222b33"></path><path d="M28 0L33.2 22.5C38.3 45 48.7 90 50.2 135C51.7 180 44.3 225 41.7 270C39 315 41 360 43.2 405C45.3 450 47.7 495 48.8 517.5L50 540L0 540L0 517.5C0 495 0 450 0 405C0 360 0 315 0 270C0 225 0 180 0 135C0 90 0 45 0 22.5L0 0Z" fill="#43474b"></path><path d="M14 0L16.2 22.5C18.3 45 22.7 90 23.5 135C24.3 180 21.7 225 20.8 270C20 315 21 360 20 405C19 450 16 495 14.5 517.5L13 540L0 540L0 517.5C0 495 0 450 0 405C0 360 0 315 0 270C0 225 0 180 0 135C0 90 0 45 0 22.5L0 0Z" fill="#656565"></path></svg>