<svg id="visual" viewBox="0 0 900 600" width="900" height="600" xmlns="http://www.w3.org/2000/svg" xmlns:xlink="http://www.w3.org/1999/xlink" version="1.1"><rect x="0" y="0" width="900" height="600" fill="#1f1f24"></rect><path d="M0 477L37.5 469.3C75 461.7 150 446.3 225 442.8C300 439.3 375 447.7 450 455.3C525 463 600 470 675 471.2C750 472.3 825 467.7 862.5 465.3L900 463L900 601L862.5 601C825 601 750 601 675 601C600 601 525 601 450 601C375 601 300 601 225 601C150 601 75 601 37.5 601L0 601Z" fill="#222b33"></path><path d="M0 445L37.5 448.5C75 452 150 459 225 467.8C300 476.7 375 487.3 450 492.8C525 498.3 600 498.7 675 491.8C750 485 825 471 862.5 464L900 457L900 601L862.5 601C825 601 750 601 675 601C600 601 525 601 450 601C375 601 300 601 225 601C150 601 75 601 37.5 601L0 601Z" fill="#383d43"></path><path d="M0 518L37.5 516.7C75 515.3 150 512.7 225 515.5C300 518.3 375 526.7 450 526.8C525 527 600 519 675 510.7C750 502.3 825 493.7 862.5 489.3L900 485L900 601L862.5 601C825 601 750 601 675 601C600 601 525 601 450 601C375 601 300 601 225 601C150 601 75 601 37.5 601L0 601Z" fill="#4e5154"></path><path d="M0 548L37.5 547.8C75 547.7 150 547.3 225 544.3C300 541.3 375 535.7 450 540C525 544.3 600 558.7 675 561.7C750 564.7 825 556.3 862.5 552.2L900 548L900 601L862.5 601C825 601 750 601 675 601C600 601 525 601 450 601C375 601 300 601 225 601C150 601 75 601 37.5 601L0 601Z" fill="#656565"></path></svg>